<?xml version="1.0" encoding="iso-8859-1"?>
<!-- Generator: Adobe Illustrator 19.0.0, SVG Export Plug-In . SVG Version: 6.00 Build 0)  -->
<svg version="1.1" id="Layer_1" xmlns="http://www.w3.org/2000/svg" xmlns:xlink="http://www.w3.org/1999/xlink" x="0px" y="0px"
	 viewBox="0 0 512.001 512.001" style="enable-background:new 0 0 512.001 512.001;" xml:space="preserve">
<path style="fill:#CAD1D8;" d="M24,16h464c13.254,0,24,10.745,24,24v432c0,13.254-10.745,24-24,24H24C10.745,496,0,485.255,0,472V40
	C0,26.745,10.745,16,24,16z"/>
<g>
	<circle style="fill:#9BA7AF;" cx="24.002" cy="47.995" r="7.998"/>
	<circle style="fill:#9BA7AF;" cx="56.002" cy="47.995" r="7.998"/>
	<circle style="fill:#9BA7AF;" cx="88.002" cy="47.995" r="7.998"/>
</g>
<path style="fill:#FFFFFF;" d="M24,80h464c4.418,0,8,3.582,8,8v384c0,4.418-3.582,8-8,8H24c-4.418,0-8-3.582-8-8V88
	C16,83.582,19.582,80,24,80z"/>
<path style="fill:#E2E5E7;" d="M120,40h368c4.418,0,8,3.582,8,8l0,0c0,4.418-3.582,8-8,8H120c-4.418,0-8-3.582-8-8l0,0
	C112,43.582,115.582,40,120,40z"/>
<g>
	<path style="fill:#CAD1D8;" d="M224,168.001h224c4.418,0,8,3.582,8,8l0,0c0,4.418-3.582,8.001-8,8.001H224
		c-4.418,0-8.001-3.582-8.001-8.001l0,0C216.001,171.582,219.582,168.001,224,168.001z"/>
	<path style="fill:#CAD1D8;" d="M224,232.001h176c4.418,0,8,3.582,8,8l0,0c0,4.418-3.582,8.001-8,8.001H224
		c-4.418,0-8.001-3.582-8.001-8.001l0,0C216.001,235.582,219.582,232.001,224,232.001z"/>
	<path style="fill:#CAD1D8;" d="M224,200.001h136c4.418,0,8,3.582,8,8l0,0c0,4.418-3.582,8.001-8,8.001H224
		c-4.418,0-8.001-3.582-8.001-8.001l0,0C216.001,203.582,219.582,200.001,224,200.001z"/>
</g>
<path style="fill:#595A66;" d="M272,144L272,144c0,4.418-3.582,8.001-8,8.001h-40c-4.418,0-8.001-3.582-8.001-8.001l0,0
	c0-4.418,3.582-8.001,8.001-8.001h40C268.418,136.001,272,139.582,272,144z"/>
<g>
	<path style="fill:#CAD1D8;" d="M64,336h224c4.418,0,8,3.582,8,8l0,0c0,4.418-3.582,8-8,8H64c-4.418,0-8-3.582-8-8l0,0
		C56,339.582,59.582,336,64,336z"/>
	<path style="fill:#CAD1D8;" d="M64,400h176c4.418,0,8.001,3.582,8.001,8l0,0c0,4.418-3.582,8-8.001,8H64c-4.418,0-8-3.582-8-8l0,0
		C56,403.582,59.582,400,64,400z"/>
	<path style="fill:#CAD1D8;" d="M64,368h136.001c4.418,0,8,3.582,8,8l0,0c0,4.418-3.582,8-8,8H64c-4.418,0-8-3.582-8-8l0,0
		C56,371.582,59.582,368,64,368z"/>
</g>
<path style="fill:#595A66;" d="M112,312L112,312c0,4.418-3.582,8-8.001,8H64c-4.418,0-8-3.582-8-8l0,0c0-4.418,3.582-8,8-8h40
	C108.418,304,112,307.582,112,312z"/>
<path style="fill:#ABE1FA;" d="M64,136.001h112c4.418,0,8.001,3.582,8.001,8v96c0,4.418-3.582,8.001-8.001,8.001H64
	c-4.418,0-8-3.582-8-8.001v-96C56,139.582,59.582,136.001,64,136.001z"/>
<circle style="fill:#F19F35;" cx="96" cy="160" r="7.998"/>
<g>
	<path style="fill:#595A66;" d="M184.001,240v-22.32l-36.24-36.24c-2.809-2.797-7.351-2.797-10.16,0l-66.56,66.56h104.96
		C180.418,248.001,184.001,244.418,184.001,240z"/>
	<path style="fill:#595A66;" d="M65.6,196.8l-9.6,9.44v33.76c0,4.418,3.582,8.001,8,8.001h57.2l-44.8-51.2
		c-2.63-2.983-7.18-3.267-10.163-0.638C66.012,196.361,65.799,196.574,65.6,196.8z"/>
</g>
<path style="fill:#35363E;" d="M115.52,225.12c-4.304-4.906-11.392-6.257-17.2-3.28l22.88,26.16h14.32L115.52,225.12z"/>
<path style="fill:#6F707E;" d="M142.864,189.813L142.864,189.813c1.562,1.562,1.562,4.095,0,5.657l-11.314,11.314
	c-1.562,1.562-4.095,1.562-5.657,0l0,0c-1.562-1.562-1.562-4.095,0-5.657l11.314-11.314
	C138.77,188.251,141.302,188.251,142.864,189.813z"/>
<path style="fill:#35363E;" d="M184.001,217.68l-5.52-5.52c-1.988-1.988-5.212-1.988-7.2,0c-1.987,1.988-1.988,5.211,0,7.2l0,0
	l4.16,4.16c4.011,4.041,6.952,9.018,8.56,14.48L184.001,217.68L184.001,217.68z"/>
<path style="fill:#6F707E;" d="M70,203.12c-1.4-1.372-3.641-1.372-5.04,0L56,212v7.12c1.326,0.515,2.831,0.201,3.84-0.8L70,208
	c1.372-1.4,1.372-3.641,0-5.04l0,0V203.12z"/>
<path style="fill:#ABE1FA;" d="M336,304h112c4.418,0,8,3.582,8,8v96c0,4.418-3.582,8-8,8H336c-4.418,0-8-3.582-8-8v-96
	C328,307.582,331.582,304,336,304z"/>
<circle style="fill:#F19F35;" cx="367.995" cy="327.998" r="7.998"/>
<g>
	<path style="fill:#595A66;" d="M456,408v-22.32l-36.24-36.24c-2.809-2.797-7.351-2.797-10.16,0l-66.56,66.56H448
		C452.418,416,456,412.418,456,408z"/>
	<path style="fill:#595A66;" d="M337.6,364.8l-9.6,9.44V408c0,4.418,3.582,8,8,8h57.2l-44.8-51.2
		c-2.63-2.983-7.18-3.267-10.163-0.638C338.012,364.361,337.799,364.575,337.6,364.8z"/>
</g>
<path style="fill:#35363E;" d="M387.52,393.12c-4.304-4.906-11.392-6.257-17.2-3.28l22.88,26.16h14.32L387.52,393.12z"/>
<path style="fill:#6F707E;" d="M414.803,357.82L414.803,357.82c1.562,1.562,1.562,4.095,0,5.657L403.49,374.79
	c-1.562,1.562-4.095,1.562-5.657,0l0,0c-1.562-1.562-1.562-4.095,0-5.657l11.314-11.314
	C410.708,356.258,413.242,356.258,414.803,357.82z"/>
<path style="fill:#35363E;" d="M456,385.68l-5.52-5.52c-1.988-1.988-5.212-1.988-7.2,0s-1.988,5.212,0,7.2l0,0l4.16,4.16
	c4.011,4.041,6.952,9.018,8.56,14.48v-20.32H456z"/>
<path style="fill:#6F707E;" d="M342,371.12c-1.4-1.372-3.641-1.372-5.04,0l-8.96,8.88v7.12c1.326,0.515,2.831,0.201,3.84-0.8
	L342,376c1.372-1.4,1.372-3.641,0-5.04l0,0V371.12z"/>
<g>
</g>
<g>
</g>
<g>
</g>
<g>
</g>
<g>
</g>
<g>
</g>
<g>
</g>
<g>
</g>
<g>
</g>
<g>
</g>
<g>
</g>
<g>
</g>
<g>
</g>
<g>
</g>
<g>
</g>
</svg>
