<svg version="1.2" xmlns="http://www.w3.org/2000/svg" viewBox="0 0 180 180" width="180" height="180">
	<title>logo_inerza_negativo_blanco-svg</title>
	<style>
		.s0 { fill: #ffffff } 
	</style>
	<g id="Page-1">
		<g id="logo_INERZA-Copy">
			<path id="Fill-1" fill-rule="evenodd" class="s0" d="m84.3 89.2c2.9-0.3 5.5 1.8 5.8 4.8 0.4 2.9-1.8 5.6-4.7 5.9-3 0.3-5.6-1.8-5.9-4.8-0.3-2.9 1.8-5.6 4.8-5.9z"/>
			<path id="Fill-2" fill-rule="evenodd" class="s0" d="m94.1 91.5c-1.9-6.2-0.1-8.2 7.2-11.2 7.3-3.1 4.5-19.2 11.8-21.4 7.3-2.2 9.7 2 10.6 5 0.9 3-0.7 8-7.6 10.1-7 2.2-9.5 8.3-8.4 11.6 1 3.4 6.1 6.7 14.4 4.1 8.2-2.5 12.4-3.1 14.7 4.5 2.3 7.6-3.4 10.5-5.5 11.2-2.2 0.7-9.9 1.7-12.5-6.8-2.6-8.5-13.6-3.4-13.6-3.4 0 0-9.1 2.9-11.1-3.7z"/>
			<path id="Fill-3" fill-rule="evenodd" class="s0" d="m166.1 76.8c2.9 5.9 1.4 8.1-5.3 12.2-6.8 4.2-1.4 19.6-8.3 23-6.9 3.4-9.9-0.5-11.2-3.3-1.4-2.8-0.6-8 5.9-11.2 6.5-3.2 8-9.6 6.5-12.8-1.5-3.1-7.1-5.5-14.9-1.7-7.7 3.8-11.7 5-15.2-2.1-3.5-7.2 1.7-11 3.7-12 2-1 9.4-3.2 13.3 4.8 3.9 7.9 14 1.2 14 1.2 0 0 8.5-4.2 11.5 1.9z"/>
			<path id="Fill-4" fill-rule="evenodd" class="s0" d="m173.8 68.7c2.9-0.3 5.5 1.8 5.8 4.8 0.4 2.9-1.8 5.6-4.7 5.9-3 0.3-5.6-1.9-5.9-4.8-0.3-3 1.8-5.6 4.8-5.9z"/>
			<path id="Fill-5" fill-rule="evenodd" class="s0" d="m0.3 105.1h5.5v14.6h-5.5zm0-6h5.5v4.2h-5.5z"/>
			<path id="Fill-6" fill-rule="evenodd" class="s0" d="m9.8 105.1h5.1v2.2h0.3q0.8-1.4 2.2-2 1.4-0.6 4-0.6 2.7 0 4.2 0.4 1.5 0.4 2.4 1.5 1.1 1 1.4 2.2 0.3 1.3 0.3 4.3v6.6h-5.5v-6.6q0-1.8-0.2-2.4-0.1-0.6-0.5-1.1-0.8-0.8-3.7-0.8-2.8 0-3.7 1-0.5 0.5-0.7 1.3-0.1 0.8-0.1 2.8v5.8h-5.5z"/>
			<path id="Fill-7" fill-rule="evenodd" class="s0" d="m47.4 115.1h5.5q-0.2 2.4-1.5 3.4-1 0.9-3 1.3-1.9 0.3-5.8 0.3-3.2 0-4.9-0.3-1.7-0.3-2.7-1.1-1-0.8-1.4-2.1-0.4-1.3-0.4-4.1 0-2.1 0.1-3.2 0.2-1 0.6-1.8 0.9-1.8 3.2-2.3 2-0.5 6.1-0.5 3.7 0 5.1 0.3 2.7 0.4 3.7 2 1 1.5 1 5.1 0 0.4 0 1.5h-14.3q0 1.1 0.1 1.6 0.1 0.5 0.6 0.8 0.8 0.6 3.7 0.6 1.8 0 2.7-0.1 0.9-0.2 1.2-0.5 0.3-0.3 0.4-0.9zm0.1-4.5q0-0.9-0.1-1.2-0.1-0.3-0.3-0.6-0.7-0.7-3.8-0.7-2.8 0-3.7 0.5-0.9 0.5-0.9 2z"/>
			<path id="Fill-8" fill-rule="evenodd" class="s0" d="m56.6 105.1h5.2v2.2h0.3q0.7-1.4 2-2 1.3-0.6 3.6-0.6 3.3 0 4.6 1.3 1.3 1.3 1.4 4.6-0.1 0.2-0.1 1h-5.2q0-1.3-0.2-1.8-0.6-1-2.6-1-2 0-2.8 1.1-0.4 0.5-0.6 1.3-0.1 0.8-0.1 2.5v6h-5.5z"/>
			<path id="Fill-9" class="s0" d="m76.6 105.1h16.8v4.2l-9 6.6h9.3v3.8h-17.8v-3.8l9.4-7.1h-8.7v-3.7"/>
			<path id="Fill-10" fill-rule="evenodd" class="s0" d="m102.6 109.7h-5.5q0.1-1.7 0.8-2.6 0.9-1.4 3-1.9 2.1-0.5 7-0.5 3.6 0 4.9 0.3 1.3 0.2 2.3 1.2 0.7 0.7 0.9 1.7 0.3 1 0.3 3v8.8h-5.3v-1.9h-0.2q-0.6 1.2-1.9 1.8-0.7 0.3-2 0.4-1.2 0.1-4 0.1-2.2 0-3.4-0.3-1.2-0.2-1.9-0.9-1.1-1-1.1-3.3 0-2.6 1.3-3.7 1-0.9 2.6-1.2 1.7-0.3 6-0.3 1.9 0 2.7 0.3 0.8 0.2 1.5 0.9h0.2v-0.8q0-1.7-0.6-2.1-0.6-0.5-3.1-0.5-3 0-3.7 0.2-0.7 0.3-0.8 1.3zm3.7 3.9q-2.8 0-3.5 0.3-0.8 0.4-0.8 1.2 0 0.9 0.8 1.2 0.8 0.3 3 0.3 2.9 0 3.9-0.3 1-0.4 1-1.3 0-0.9-0.9-1.2-0.4-0.2-3.5-0.2z"/>
		</g>
	</g>
</svg>