<svg xmlns="http://www.w3.org/2000/svg" width="1281" height="1280" fill="none"><path fill="url(#a)" fill-rule="evenodd" d="M815.93 94.64c9.72 12.07 14.68 28.35 24.59 60.91l216.54 711.35a901.1 901.1 0 0 0-258.89-87.65L657.18 302.8a18.35 18.35 0 0 0-35.2.05l-139.3 476.16a901.1 901.1 0 0 0-260.05 87.78l217.61-711.4c9.94-32.5 14.91-48.76 24.63-60.8A80 80 0 0 1 497.3 70.6c14.36-5.77 31.36-5.77 65.35-5.77h155.43c34.03 0 51.05 0 65.43 5.78a80 80 0 0 1 32.43 24.03Z" clip-rule="evenodd"/><path fill="#FF5D01" fill-rule="evenodd" d="M841.84 900.75c-35.7 30.53-106.95 51.35-189.02 51.35-100.73 0-185.16-31.36-207.56-73.54-8.01 24.17-9.81 51.84-9.81 69.5 0 0-5.28 86.78 55.08 147.14a56.74 56.74 0 0 1 56.74-56.74c53.72 0 53.66 46.86 53.61 84.88v3.39c0 57.71 35.27 107.18 85.43 128.04a116.34 116.34 0 0 1-11.7-51c0-55.04 32.32-75.54 69.87-99.36 29.88-18.95 63.08-40 85.96-82.24a155.1 155.1 0 0 0 18.72-74.1c0-16.5-2.57-32.4-7.32-47.32Z" clip-rule="evenodd"/><path fill="url(#b)" fill-rule="evenodd" d="M841.84 900.75c-35.7 30.53-106.95 51.35-189.02 51.35-100.73 0-185.16-31.36-207.56-73.54-8.01 24.17-9.81 51.84-9.81 69.5 0 0-5.28 86.78 55.08 147.14a56.74 56.74 0 0 1 56.74-56.74c53.72 0 53.66 46.86 53.61 84.88v3.39c0 57.71 35.27 107.18 85.43 128.04a116.34 116.34 0 0 1-11.7-51c0-55.04 32.32-75.54 69.87-99.36 29.88-18.95 63.08-40 85.96-82.24a155.1 155.1 0 0 0 18.72-74.1c0-16.5-2.57-32.4-7.32-47.32Z" clip-rule="evenodd"/><defs><linearGradient id="a" x1="883.89" x2="639.85" y1="27.11" y2="866.9" gradientUnits="userSpaceOnUse"><stop stop-color="#fff"/><stop offset="1" stop-color="#F9FAFB"/></linearGradient><linearGradient id="b" x1="1002.57" x2="791.22" y1="652.45" y2="1094.91" gradientUnits="userSpaceOnUse"><stop stop-color="#FF1639"/><stop offset="1" stop-color="#FF1639" stop-opacity="0"/></linearGradient></defs></svg>