<svg xmlns="http://www.w3.org/2000/svg" width="256" height="296" preserveAspectRatio="xMidYMid"><path fill="#673AB8" d="m128 0 128 73.9v147.8l-128 73.9L0 221.7V73.9z"/><path fill="#FFF" d="M34.86 220.48c17.02 21.78 71.1 5.18 122.15-34.7 51.06-39.9 80.25-88.35 63.23-110.13-17.02-21.78-71.1-5.19-122.15 34.7-51.06 39.9-80.24 88.35-63.23 110.13Zm7.27-5.68c-5.64-7.22-3.17-21.4 7.58-39.26 11.32-18.8 30.54-39.54 54.06-57.92 23.52-18.37 48.3-32 69.28-38.44 19.92-6.11 34.28-5.08 39.92 2.15 5.64 7.22 3.18 21.4-7.57 39.25-11.33 18.8-30.55 39.55-54.06 57.92-23.52 18.38-48.3 32-69.29 38.45-19.92 6.11-34.27 5.07-39.92-2.15Z"/><path fill="#FFF" d="M220.24 220.48c17.02-21.78-12.17-70.24-63.23-110.13-51.05-39.89-105.13-56.48-122.15-34.7-17.01 21.78 12.17 70.24 63.23 110.12 51.05 39.9 105.13 56.49 122.15 34.7Zm-7.27-5.68c-5.64 7.22-20 8.26-39.92 2.15-20.98-6.44-45.76-20.07-69.28-38.45-23.52-18.37-42.74-39.12-54.06-57.92-10.75-17.85-13.22-32.03-7.58-39.25 5.65-7.23 20-8.26 39.92-2.15 20.98 6.44 45.77 20.07 69.29 38.44 23.51 18.38 42.73 39.13 54.06 57.92 10.75 17.86 13.21 32.04 7.57 39.26Z"/><path fill="#FFF" d="M127.55 167.67a19.6 19.6 0 1 0 0-39.21 19.6 19.6 0 0 0 0 39.2Z"/></svg>